<svg xmlns="http://www.w3.org/2000/svg" width="15" height="15" viewBox="0 0 15 15"><defs><filter id="ayvra" width="200%" height="200%" x="-50%" y="-50%"><feGaussianBlur in="SourceGraphic" result="FeGaussianBlur1041Out" stdDeviation="0 0"/></filter><mask id="ayvrb"><path fill="#fff" d="M12.188 10.313h-.938a1.875 1.875 0 0 1-1.875-1.875v-.603a4.736 4.736 0 0 0 .897-1.692c.02-.103.12-.155.186-.227.359-.358.43-.964.16-1.395-.036-.066-.102-.122-.098-.204 0-.55.002-1.1-.001-1.65-.015-.663-.204-1.353-.67-1.843C9.474.427 8.96.19 8.427.089a4.722 4.722 0 0 0-2.041.048c-.577.146-1.119.483-1.454.984-.296.436-.427.964-.448 1.485-.009.56-.002 1.12-.004 1.681.013.112-.083.188-.126.281-.253.46-.141 1.087.266 1.421.103.071.123.202.16.314.178.554.473 1.066.845 1.512v.623c0 1.036-.84 1.875-1.875 1.875h-.937s-1.7.468-2.813 2.813v.937c0 .518.42.937.938.937h13.125c.518 0 .937-.419.937-.937v-.937c-1.113-2.345-2.812-2.813-2.812-2.813z"/></mask></defs><g><g><path fill="#c9c9c9" d="M12.188 10.313h-.938a1.875 1.875 0 0 1-1.875-1.875v-.603a4.736 4.736 0 0 0 .897-1.692c.02-.103.12-.155.186-.227.359-.358.43-.964.16-1.395-.036-.066-.102-.122-.098-.204 0-.55.002-1.1-.001-1.65-.015-.663-.204-1.353-.67-1.843C9.474.427 8.96.19 8.427.089a4.722 4.722 0 0 0-2.041.048c-.577.146-1.119.483-1.454.984-.296.436-.427.964-.448 1.485-.009.56-.002 1.12-.004 1.681.013.112-.083.188-.126.281-.253.46-.141 1.087.266 1.421.103.071.123.202.16.314.178.554.473 1.066.845 1.512v.623c0 1.036-.84 1.875-1.875 1.875h-.937s-1.7.468-2.813 2.813v.937c0 .518.42.937.938.937h13.125c.518 0 .937-.419.937-.937v-.937c-1.113-2.345-2.812-2.813-2.812-2.813z"/><path fill-opacity=".23" d="M-.1 16V-1h15.2v15.125c-1.113-2.344-2.812-2.812-2.812-2.812h-.938a1.875 1.875 0 0 1-1.875-1.875v-.603a4.736 4.736 0 0 0 .897-1.692c.02-.103.12-.155.186-.227.36-.358.43-.964.16-1.395-.036-.066-.102-.122-.098-.204 0-.55.002-1.1-.001-1.65-.015-.663-.204-1.353-.67-1.843-.375-.397-.89-.634-1.422-.735a4.722 4.722 0 0 0-2.041.048c-.577.146-1.119.483-1.454.984-.296.436-.427.964-.448 1.485-.009.56-.002 1.12-.004 1.681.013.112-.083.188-.126.281-.253.46-.141 1.087.266 1.421.103.071.123.202.16.314.178.554.473 1.066.845 1.512v.623c0 1.036-.84 1.875-1.875 1.875h-.937s-1.7.468-2.813 2.813v.937c0 .51.405.923.91.937zm15.2 0h-.91c.5-.014.9-.418.91-.919zM1.038 16H14.19 1.01a.97.97 0 0 0 .028 0zm14.062-.937v-.937V15.062z" filter="url(#ayvra)" mask="url(&quot;#ayvrb&quot;)"/></g></g></svg>