<svg xmlns="http://www.w3.org/2000/svg" width="22" height="20" viewBox="0 0 22 20"><g><g><path fill="#fff" d="M15.664 12.283c.334.063.653.21.912.446l4.889 4.441c.71.645.71 1.69 0 2.336-.71.645-1.861.645-2.573 0l-4.889-4.44a1.616 1.616 0 0 1-.492-.828c-3.354 2.119-8.01 1.829-11-.886-3.355-3.051-3.355-8.012 0-11.062 3.358-3.05 8.82-3.05 12.178 0 2.99 2.717 3.31 6.945.975 9.993zm-2.518-8.59c-2.507-2.277-6.585-2.277-9.091 0-2.504 2.276-2.504 5.98 0 8.257 2.506 2.276 6.584 2.276 9.09 0 2.507-2.277 2.507-5.981 0-8.258z"/></g></g></svg>