<svg xmlns="http://www.w3.org/2000/svg" width="129" height="100" viewBox="0 0 129 100"><g><g><path fill="#fff" d="M.01 44.145a1.744 1.744 0 0 1 .532-1.26L42.95 1.614c2.216-2.157 5.815-2.162 8.024-.012l10.91 10.617a5.414 5.414 0 0 1 1.06 6.357l2.927 2.848c2.163 2.105 3.351 4.907 3.347 7.888v.188a7.46 7.46 0 0 0 2.29 5.397l24.566 23.908a18.592 18.592 0 0 0 8.597 4.729 22.223 22.223 0 0 1 10.278 5.653l12.39 12.057a5.424 5.424 0 0 1-.013 7.81l-9.575 9.318c-2.216 2.157-5.816 2.162-8.025.012L45.926 36.296c-.114 2.745-.372 8.938-.632 15.136-.175 4.152-.35 8.306-.486 11.424a1700.317 1700.317 0 0 1-.217 4.84c-.027.543-.053 1.058-.535 1.527a1.85 1.85 0 0 1-1.536.519c-7.809-.992-17.259-5.406-28.087-13.12C6.45 50.937.795 45.62.558 45.395a1.733 1.733 0 0 1-.548-1.25zm115.182 51.74l9.576-9.32c.802-.779.804-2.046.005-2.824l-12.39-12.057a18.589 18.589 0 0 0-8.597-4.728 22.227 22.227 0 0 1-10.278-5.654L68.941 37.394c-2.163-2.105-3.351-4.906-3.346-7.887v-.189a7.461 7.461 0 0 0-2.29-5.397l-2.716-2.643-12.483 12.148L112.29 95.89a2.095 2.095 0 0 0 2.902-.004zM41.05 65.925c.046-1.015.105-2.39.175-3.997-9.466-2.787-19.396-9.384-26.125-14.49a1.73 1.73 0 0 1-.31-2.473 1.847 1.847 0 0 1 2.542-.309c6.269 4.756 15.383 10.847 24.048 13.621.33-7.762.768-18.249.989-23.582.018-.443.208-.864.531-1.178l16.415-15.975c.802-.78.804-2.048.005-2.825L48.409 4.099a2.095 2.095 0 0 0-2.903.004L9.967 38.69c.47.407.953.819 1.446 1.233a1.728 1.728 0 0 1 .09 2.58 1.848 1.848 0 0 1-2.465.089c-.56-.472-1.107-.94-1.64-1.403l-2.971 2.892c4.878 4.342 22.127 18.934 36.622 21.844zm-9.056-45.684a1.846 1.846 0 0 1 2.56-.004l8.184 7.963a1.729 1.729 0 0 1-.004 2.492 1.846 1.846 0 0 1-2.561.004l-8.183-7.963a1.729 1.729 0 0 1 .004-2.492z"/></g></g></svg>