<svg xmlns="http://www.w3.org/2000/svg" width="155" height="104" viewBox="0 0 155 104"><g><g><path d="M155 2.277v82.468c0 .884-.512 1.688-1.313 2.061l-36.399 16.98-.028.01a2.164 2.164 0 0 1-.16.064l-.062.023c-.058.02-.118.035-.177.05l-.055.014a2.41 2.41 0 0 1-.194.031c-.015.002-.03.006-.045.007a2.27 2.27 0 0 1-.931-.094l-.008-.003a2.188 2.188 0 0 1-.207-.078l-.007-.003L77.5 87.227l-37.914 16.58a2.354 2.354 0 0 1-.691.18l-.092.004c-.043.002-.085.006-.129.006h-.014c-.033 0-.066-.004-.1-.005-.046-.003-.092-.004-.138-.01-.027-.002-.054-.007-.08-.011-.052-.008-.104-.016-.155-.027l-.07-.018a2.11 2.11 0 0 1-.158-.045c-.023-.007-.045-.017-.068-.025a2.387 2.387 0 0 1-.15-.06l-.029-.012-36.4-16.979A2.274 2.274 0 0 1 0 84.745V2.276A2.274 2.274 0 0 1 3.237.216L38.705 16.76 76.589.193l.007-.003a2.14 2.14 0 0 1 .202-.076l.013-.005a2.267 2.267 0 0 1 .783-.102c.207.008.407.042.596.102l.012.005a2.222 2.222 0 0 1 .21.079l37.884 16.567L151.763.216A2.277 2.277 0 0 1 155 2.277zm-4.55 3.57L118.6 20.703v5.829a2.275 2.275 0 0 1-4.549 0v-5.79L95.52 12.638c2.787 10.004 1.038 20.885-4.953 29.827a37.755 37.755 0 0 1-10.79 10.65v30.142l8.19 3.583c3.207-12.406 8.957-22.467 17.118-29.924a52.611 52.611 0 0 1 8.967-6.58V36.233a2.274 2.274 0 0 1 4.55 0v11.71c8.953-4.199 19.604-6.437 31.85-6.682zM114.051 55.69a47.539 47.539 0 0 0-5.897 4.581c-7.65 6.99-13.01 16.55-15.957 28.418l21.854 9.557zM40.949 98.247l34.276-14.99V55.68c-6.343 3.056-13.777 4.659-21.991 4.659-4.333 0-8.434.285-12.285.774zm-36.4-92.4v62.578c5.349-3.185 16.366-8.71 31.85-11.266V36.234a2.274 2.274 0 0 1 4.55 0v20.28a104.09 104.09 0 0 1 12.285-.724c8.388 0 15.851-1.815 21.991-5.25V19.255a2.275 2.275 0 0 1 4.55 0v28.253a33.03 33.03 0 0 0 7.01-7.573c5.944-8.872 7.13-19.907 3.171-29.516a2.34 2.34 0 0 1-.085-.25L79.775 5.752v3.8a2.274 2.274 0 0 1-4.55 0v-3.8l-34.276 14.99v5.789a2.275 2.275 0 0 1-4.55 0v-5.829zm0 77.45L36.4 98.153V61.8C19.14 64.832 7.74 71.701 4.55 73.81zm145.901 0V45.81c-12.461.26-23.119 2.678-31.85 7.211v45.131zM51.625 37.052l3.245-3.244-3.245-3.243a2.273 2.273 0 0 1 0-3.216 2.276 2.276 0 0 1 3.217 0l3.245 3.243 3.245-3.243a2.273 2.273 0 1 1 3.217 3.216l-3.245 3.243 3.245 3.244a2.273 2.273 0 1 1-3.217 3.215l-3.245-3.243-3.245 3.243a2.268 2.268 0 0 1-1.608.666 2.273 2.273 0 0 1-1.609-3.882z"/></g></g></svg>