<svg xmlns="http://www.w3.org/2000/svg" width="99" height="104" viewBox="0 0 99 104"><g><g><path d="M67.065 30.962a2.314 2.314 0 0 1-2.317 2.311h-20.28a2.314 2.314 0 0 1-2.317-2.31 2.314 2.314 0 0 1 2.317-2.311h20.28a2.314 2.314 0 0 1 2.317 2.31zm-17.778 12.01a2.314 2.314 0 0 1-2.317-2.311 2.314 2.314 0 0 1 2.317-2.311h10.642a2.314 2.314 0 0 1 2.317 2.31 2.314 2.314 0 0 1-2.317 2.311zm15.461 12.635h-20.28a2.314 2.314 0 0 1-2.317-2.311 2.314 2.314 0 0 1 2.317-2.31h20.28a2.314 2.314 0 0 1 2.317 2.31 2.314 2.314 0 0 1-2.317 2.31zm-4.819 5.077a2.314 2.314 0 0 1 2.317 2.311 2.314 2.314 0 0 1-2.317 2.31H49.287a2.314 2.314 0 0 1-2.317-2.31 2.314 2.314 0 0 1 2.317-2.31zM77.002 4.622H20.97a11.555 11.555 0 0 1 2.364 7.014v68.843c0 4.883 3.983 8.856 8.88 8.856h43.17a2.314 2.314 0 0 1 2.316 2.311 2.313 2.313 0 0 1-2.317 2.31h-43.17c-7.451 0-13.513-6.046-13.513-13.477V11.636c0-3.868-3.155-7.014-7.033-7.014-3.878 0-7.033 3.146-7.033 7.014v18.25h6.298a2.314 2.314 0 0 1 2.317 2.311 2.314 2.314 0 0 1-2.317 2.311H2.317A2.314 2.314 0 0 1 0 32.197V11.636C0 5.22 5.233 0 11.667 0h65.335c7.452 0 13.515 6.046 13.515 13.478v14.3a2.314 2.314 0 0 1-2.317 2.31 2.314 2.314 0 0 1-2.318-2.31v-14.3c0-4.883-3.983-8.856-8.88-8.856zM99 45.062v26.543a2.314 2.314 0 0 1-2.317 2.311 2.314 2.314 0 0 1-2.317-2.31V45.062c0-1.06-.863-1.92-1.924-1.92h-4.243a2.314 2.314 0 0 1-2.317-2.311 2.314 2.314 0 0 1 2.317-2.31h4.243c3.616 0 6.558 2.934 6.558 6.54zm-8.483 56.218v.41A2.314 2.314 0 0 1 88.2 104a2.314 2.314 0 0 1-2.317-2.31v-.41a2.314 2.314 0 0 1 2.317-2.31 2.314 2.314 0 0 1 2.317 2.31zm0-52.009v44.201a2.314 2.314 0 0 1-2.317 2.31 2.314 2.314 0 0 1-2.317-2.31v-44.2A2.314 2.314 0 0 1 88.2 46.96a2.314 2.314 0 0 1 2.317 2.311z"/></g></g></svg>